<?xml version="1.0" encoding="utf-8"?>
<!-- Generator: Adobe Illustrator 25.2.3, SVG Export Plug-In . SVG Version: 6.00 Build 0)  -->
<svg version="1.1" id="Layer_1" xmlns="http://www.w3.org/2000/svg" xmlns:xlink="http://www.w3.org/1999/xlink" x="0px" y="0px"
	 viewBox="0 0 402.2 402.2" style="enable-background:new 0 0 402.2 402.2;" xml:space="preserve">
<style type="text/css">
	.st0{fill:none;}
</style>
<g>
	<g>
		<g>
			<path class="st0" d="M201.1,49.8c-38.8,0-70.4,31.6-70.4,70.4c0,18.8,7.4,40.2,19.9,57.2c14.1,19.2,32,29.7,50.5,29.7
				c18.5,0,36.4-10.6,50.5-29.7c12.4-17,19.9-38.3,19.9-57.2C271.4,81.3,239.9,49.8,201.1,49.8z M201.1,192
				c-13.4,0-27.4-8.6-38.4-23.6c-10.5-14.3-17-32.8-17-48.3c0-30.5,24.8-55.4,55.4-55.4s55.4,24.8,55.4,55.4
				C256.4,151.8,230.4,192,201.1,192z"/>
			<path class="st0" d="M201.1,0C109.4,0,34.8,74.6,34.8,166.3c0,91.7,74.6,166.3,166.3,166.3S367.4,258,367.4,166.3
				S292.8,0,201.1,0z M201.1,317.6c-30.1,0-58.2-8.8-81.8-24.1c0.8-23,11.2-44.5,28.8-59.5c7-5.9,17.2-6.6,25.4-1.6
				c8.9,5.4,18.1,8.1,27.5,8.1c9.4,0,18.6-2.7,27.5-8.1c8.2-5,18.4-4.3,25.4,1.6c17.6,14.9,28.1,36.5,28.9,59.5
				C259.2,308.7,231.2,317.6,201.1,317.6z M297,283.2c-3.2-23.5-15-45.1-33.3-60.6c-11.9-10.1-29.1-11.3-42.8-2.9
				c-13,7.9-26.5,7.9-39.5,0c-13.7-8.3-31-7.1-42.9,3c-18.3,15.5-30,37.1-33.3,60.6c-33.8-27.8-55.4-69.9-55.4-116.9
				C49.8,82.9,117.7,15,201.1,15c83.4,0,151.3,67.9,151.3,151.3C352.4,213.3,330.8,255.4,297,283.2z"/>
			<path class="st0" d="M302.8,352.4H99.4c-4.1,0-7.5,3.4-7.5,7.5s3.4,7.5,7.5,7.5h203.5c4.1,0,7.5-3.4,7.5-7.5
				C310.3,355.7,306.9,352.4,302.8,352.4z"/>
			<path class="st0" d="M302.8,387.2H99.4c-4.1,0-7.5,3.4-7.5,7.5s3.4,7.5,7.5,7.5h203.5c4.1,0,7.5-3.4,7.5-7.5
				C310.3,390.5,306.9,387.2,302.8,387.2z"/>
		</g>
	</g>
</g>
</svg>
